<svg height="512pt" viewBox="-48 0 512 512.001" width="512pt"  fill="#fff" xmlns="http://www.w3.org/2000/svg">
	<path d="m289.984375 178.335938 35.484375-99.363282c.878906.101563 1.773438.15625 2.675781.15625 12.976563 0 23.535157-10.558594 23.535157-23.53125 0-12.976562-10.558594-23.53125-23.535157-23.53125-12.976562 0-23.53125 10.554688-23.53125 23.53125 0 5.519532 1.917969 10.601563 5.113281 14.621094l-58.847656 45.769531-32.460937-71.414062c7.710937-3.867188 13.015625-11.84375 13.015625-21.042969 0-12.972656-10.554688-23.53125-23.53125-23.53125-12.976563 0-23.53125 10.558594-23.53125 23.53125 0 9.199219 5.308594 17.175781 13.015625 21.042969l-32.460938 71.414062-58.847656-45.769531c3.199219-4.019531 5.117187-9.101562 5.117187-14.621094 0-12.976562-10.558593-23.53125-23.535156-23.53125-12.976562 0-23.53125 10.554688-23.53125 23.53125 0 12.972656 10.554688 23.53125 23.53125 23.53125.90625 0 1.796875-.058594 2.675782-.15625l35.488281 99.363282c-13.757813 3.28125-25.667969 10.625-34.992188 21.742187-12.050781 14.371094-18.6875 34.230469-18.6875 55.921875 0 28.074219 12.734375 53.429688 26.21875 80.273438 14.695313 29.261718 29.894531 59.523437 29.894531 96.082031v48.097656c0 17.394531 14.152344 31.546875 31.546876 31.546875 17.398437 0 31.550781-14.152344 31.550781-31.546875v-48.101563c0-4.140624-3.359375-7.5-7.5-7.5-4.144531 0-7.5 3.359376-7.5 7.5v48.101563c0 9.125-7.425781 16.546875-16.550781 16.546875s-16.546876-7.421875-16.546876-16.546875v-48.097656c0-40.113281-16.730468-73.425781-31.492187-102.816407-12.660156-25.207031-24.621094-49.019531-24.621094-73.539062 0-18.171875 5.394531-34.609375 15.183594-46.285156 10.070313-12.011719 24.128906-18.359375 40.648437-18.359375 16.535157 0 27.675782 6.859375 40.574219 14.804687 10.113281 6.230469 21.574219 13.289063 36.5625 17.035156 4.015625 1.007813 8.089844-1.4375 9.09375-5.457031 1.007813-4.019531-1.4375-8.089843-5.457031-9.09375-1.265625-.316406-2.496094-.667969-3.707031-1.042969 8.984375-2.875 15.621093-5.867187 21.382812-8.46875 10.371094-4.683593 17.222657-7.777343 31.402344-7.777343 16.523437 0 30.582031 6.347656 40.652344 18.359375 9.789062 11.675781 15.183593 28.113281 15.183593 46.285156 0 24.519531-11.960937 48.328125-24.625 73.539062-14.757812 29.390626-31.492187 62.703126-31.492187 102.816407v48.097656c0 9.125-7.421875 16.546875-16.546875 16.546875s-16.546875-7.421875-16.546875-16.546875v-80.164063c0-17.394531-14.152344-31.546874-31.546875-31.546874-17.398438 0-31.550781 14.152343-31.550781 31.554687 0 4.140625 3.359375 7.496094 7.5 7.496094 4.144531 0 7.5-3.359375 7.5-7.503907 0-9.125 7.425781-16.546874 16.550781-16.546874s16.546875 7.421874 16.546875 16.546874v80.164063c0 17.394531 14.152344 31.546875 31.546875 31.546875 17.398438 0 31.546875-14.152344 31.546875-31.546875v-48.097656c0-36.558594 15.199219-66.816407 29.898437-96.082031 13.480469-26.84375 26.214844-52.199219 26.214844-80.273438 0-21.6875-6.636718-41.550781-18.6875-55.921875-9.320312-11.117187-21.230468-18.460937-34.988281-21.742187zm38.160156-131.273438c4.707031 0 8.535157 3.828125 8.535157 8.535156 0 4.703125-3.828126 8.53125-8.535157 8.53125-4.703125 0-8.53125-3.828125-8.53125-8.53125 0-4.707031 3.828125-8.535156 8.53125-8.535156zm-120.242187-32.0625c4.707031 0 8.53125 3.828125 8.53125 8.53125s-3.824219 8.53125-8.53125 8.53125c-4.703125 0-8.53125-3.828125-8.53125-8.53125s3.828125-8.53125 8.53125-8.53125zm-128.773438 40.597656c0-4.707031 3.828125-8.53125 8.535156-8.53125 4.703126 0 8.53125 3.828125 8.53125 8.53125s-3.828124 8.53125-8.53125 8.53125c-4.707031 0-8.535156-3.828125-8.535156-8.53125zm156.125 129.863282c-8.882812 4.011718-18.9375 8.539062-36.6875 12.261718-2.425781-1.425781-4.796875-2.886718-7.148437-4.335937-13.597657-8.375-27.660157-17.03125-48.441407-17.03125-.644531 0-1.277343.03125-1.917968.046875l-29.65625-83.042969 51.816406 40.300781c1.8125 1.410156 4.171875 1.910156 6.398438 1.363282 2.226562-.550782 4.082031-2.089844 5.035156-4.179688l33.25-73.15625 33.253906 73.15625c.949219 2.089844 2.804688 3.628906 5.035156 4.179688 2.226563.550781 4.585938.046874 6.398438-1.363282l51.8125-40.296875-29.65625 83.039063c-.636719-.015625-1.273438-.046875-1.917969-.046875-17.410156 0-26.753906 4.21875-37.574219 9.105469zm0 0" />
	<path d="m47.582031 232.46875h-40.082031c-4.140625 0-7.5 3.355469-7.5 7.5 0 4.140625 3.359375 7.5 7.5 7.5h40.082031c4.140625 0 7.5-3.359375 7.5-7.5 0-4.144531-3.359375-7.5-7.5-7.5zm0 0" />
	<path d="m66.964844 185.164062-16.03125-8.015624c-3.703125-1.855469-8.210938-.351563-10.0625 3.351562-1.851563 3.707031-.347656 8.210938 3.355468 10.0625l16.03125 8.015625c1.078126.539063 2.222657.792969 3.347657.792969 2.753906 0 5.402343-1.519532 6.714843-4.144532 1.851563-3.707031.351563-8.210937-3.355468-10.0625zm0 0" />
	<path d="m44.226562 281.355469-16.03125 8.015625c-3.707031 1.851562-5.207031 6.359375-3.355468 10.0625 1.316406 2.628906 3.960937 4.148437 6.714844 4.148437 1.125 0 2.269531-.257812 3.347656-.792969l16.03125-8.015624c3.707031-1.851563 5.207031-6.359376 3.355468-10.0625-1.851562-3.707032-6.355468-5.207032-10.0625-3.355469zm0 0" />
	<path d="m207.902344 128.257812c-12.976563 0-23.53125 10.558594-23.53125 23.53125 0 12.976563 10.558594 23.53125 23.53125 23.53125 12.976562 0 23.53125-10.554687 23.53125-23.53125 0-12.972656-10.554688-23.53125-23.53125-23.53125zm0 32.066407c-4.703125 0-8.53125-3.828125-8.53125-8.535157 0-4.703124 3.828125-8.53125 8.53125-8.53125 4.707031 0 8.53125 3.828126 8.53125 8.53125 0 4.707032-3.824219 8.535157-8.53125 8.535157zm0 0" />
	<path d="m168.824219 264c1.136719 3 3.988281 4.847656 7.015625 4.847656.882812 0 1.78125-.160156 2.65625-.488281 3.875-1.46875 5.824218-5.796875 4.355468-9.671875-4.121093-10.886719-14.992187-18.203125-27.054687-18.203125-12.058594 0-22.929687 7.316406-27.050781 18.203125-1.46875 3.875.484375 8.203125 4.355468 9.671875 3.875 1.46875 8.203126-.484375 9.671876-4.359375 1.929687-5.09375 7.160156-8.515625 13.023437-8.515625s11.101563 3.421875 13.027344 8.515625zm0 0" />
	<path d="m239.964844 268.847656c3.03125 0 5.882812-1.847656 7.019531-4.847656 1.925781-5.09375 7.164063-8.515625 13.023437-8.515625 5.863282 0 11.097657 3.421875 13.027344 8.515625 1.464844 3.871094 5.796875 5.824219 9.667969 4.355469 3.875-1.464844 5.828125-5.792969 4.359375-9.667969-4.121094-10.890625-14.996094-18.207031-27.054688-18.207031-12.058593 0-22.929687 7.316406-27.054687 18.207031-1.464844 3.871094.484375 8.203125 4.359375 9.667969.875.332031 1.769531.492187 2.652344.492187zm0 0" />
	<path d="m163.867188 338.539062c11.859374 8.472657 27.5 13.136719 44.035156 13.136719 16.539062 0 32.179687-4.664062 44.039062-13.136719 12.625-9.015624 19.574219-21.25 19.574219-34.441406 0-4.144531-3.355469-7.5-7.5-7.5h-112.226563c-4.140624 0-7.5 3.355469-7.5 7.5 0 13.195313 6.953126 25.425782 19.578126 34.441406zm91.289062-26.941406c-5.207031 14.1875-24.738281 25.082032-47.253906 25.082032s-42.042969-10.894532-47.253906-25.082032zm0 0" />
	<path d="m408.304688 232.46875h-40.078126c-4.144531 0-7.5 3.355469-7.5 7.5 0 4.140625 3.355469 7.5 7.5 7.5h40.078126c4.144531 0 7.5-3.359375 7.5-7.5 0-4.144531-3.355469-7.5-7.5-7.5zm0 0" />
	<path d="m374.933594 180.5c-1.851563-3.703125-6.355469-5.207031-10.0625-3.351562l-16.03125 8.015624c-3.703125 1.851563-5.207032 6.355469-3.351563 10.0625 1.3125 2.625 3.960938 4.144532 6.710938 4.144532 1.128906 0 2.273437-.253906 3.347656-.792969l16.035156-8.015625c3.703125-1.851562 5.203125-6.355469 3.351563-10.0625zm0 0" />
	<path d="m387.613281 289.371094-16.03125-8.015625c-3.707031-1.851563-8.210937-.347657-10.0625 3.355469-1.855469 3.703124-.351562 8.210937 3.351563 10.0625l16.035156 8.015624c1.074219.539063 2.21875.792969 3.347656.792969 2.75 0 5.398438-1.519531 6.710938-4.148437 1.855468-3.703125.351562-8.207032-3.351563-10.0625zm0 0" />
</svg>
